HIERARCHY
ROOT Hips
{
  OFFSET -102.467 93.6631 130.069
  CHANNELS 6 Xposition Yposition Zposition Zrotation Xrotation Yrotation
  JOINT LeftUpLeg
  {
    OFFSET 8.64259 1.95398 -2.38835
    CHANNELS 3 Zrotation Xrotation Yrotation
    JOINT LeftLeg
    {
      OFFSET 43.7702 0 0
      CHANNELS 3 Zrotation Xrotation Yrotation
      JOINT LeftFoot
      {
        OFFSET 40.6238 0 0
        CHANNELS 3 Zrotation Xrotation Yrotation
        JOINT LeftToeBase
        {
          OFFSET 12.7242 0 0
          CHANNELS 3 Zrotation Xrotation Yrotation
          End Site
          {
            OFFSET 0 0 0
          }
        }
      }
    }
  }
  JOINT RightUpLeg
  {
    OFFSET -8.2249 1.95398 -2.59336
    CHANNELS 3 Zrotation Xrotation Yrotation
    JOINT RightLeg
    {
      OFFSET 43.5653 0 0
      CHANNELS 3 Zrotation Xrotation Yrotation
      JOINT RightFoot
      {
        OFFSET 40.6238 0 0
        CHANNELS 3 Zrotation Xrotation Yrotation
        JOINT RightToeBase
        {
          OFFSET 12.7242 0 0
          CHANNELS 3 Zrotation Xrotation Yrotation
          End Site
          {
            OFFSET 0 0 0
          }
        }
      }
    }
  }
  JOINT Spine
  {
    OFFSET 0.165834 0.87714 6.61349
    CHANNELS 3 Zrotation Xrotation Yrotation
    JOINT Spine1
    {
      OFFSET 7.38963 1.71661e-005 0
      CHANNELS 3 Zrotation Xrotation Yrotation
      JOINT Spine2
      {
        OFFSET 11.9445 1.14441e-005 0
        CHANNELS 3 Zrotation Xrotation Yrotation
        JOINT Spine3
        {
          OFFSET 14.7254 4.19617e-005 0
          CHANNELS 3 Zrotation Xrotation Yrotation
          JOINT Spine4
          {
            OFFSET 10.9679 0 0
            CHANNELS 3 Zrotation Xrotation Yrotation
            JOINT RightShoulder
            {
              OFFSET 2.46616 -1.6653 3.69651
              CHANNELS 3 Zrotation Xrotation Yrotation
              JOINT RightArm
              {
                OFFSET 13.0012 0 0
                CHANNELS 3 Zrotation Xrotation Yrotation
                JOINT RightForeArm
                {
                  OFFSET 28.7848 1.52588e-005 0
                  CHANNELS 3 Zrotation Xrotation Yrotation
                  JOINT RightHand
                  {
                    OFFSET 26.5688 1.52588e-005 0
                    CHANNELS 3 Zrotation Xrotation Yrotation
                    End Site
                    {
                      OFFSET 0 0 0
                    }
                  }
                }
              }
            }
            JOINT LeftShoulder
            {
              OFFSET 2.38034 -1.29275 -3.7523
              CHANNELS 3 Zrotation Xrotation Yrotation
              JOINT LeftArm
              {
                OFFSET 16.3182 6.10351e-005 0
                CHANNELS 3 Zrotation Xrotation Yrotation
                JOINT LeftForeArm
                {
                  OFFSET 27.0901 0 0
                  CHANNELS 3 Zrotation Xrotation Yrotation
                  JOINT LeftHand
                  {
                    OFFSET 24.5451 1.52588e-005 0
                    CHANNELS 3 Zrotation Xrotation Yrotation
                    End Site
                    {
                      OFFSET 0 0 0
                    }
                  }
                }
              }
            }
            JOINT Neck
            {
              OFFSET 5.0226 -0.0266342 0
              CHANNELS 3 Zrotation Xrotation Yrotation
              JOINT Head
              {
                OFFSET 6.69363 2.86102e-005 0
                CHANNELS 3 Zrotation Xrotation Yrotation
                End Site
                {
                  OFFSET 0 0 0
                }
              }
            }
          }
        }
      }
    }
  }
}
MOTION
Frames:	11
Frame Time:	0.0416667
-293.818 67.1867 317.768 89.4141 26.5984 84.8895 -158.859 54.9699 87.0975 -81.6922 42.4876 -4.27602 91.7138 30.9629 13.7691 137.139 -68.2736 -33.2275 137.269 -26.8857 4.33672 -8.05248 3.4982 65.8232 11.9094 42.4954 13.3301 -5.45768 -11.1415 110.304 3.41326 3.65981 -89.2479 19.6016 7.08122 0.0414598 7.95001 7.07615 -0.271848 -14.7302 6.73984 2.17759 5.28245 6.73983 2.17759 121.282 -3.44292 -19.454 144.406 -63.8092 107.295 -49.7413 19.7893 -66.5014 -12.6117 4.91747 -49.7839 -60.5112 -25.4841 132.612 -28.1286 56.796 24.5868 43.6818 18.1248 -75.0624 28.8052 -23.8695 -78.4679 65.9696 -7.95927 13.4331 -122.982 -1.15931 -12.7298 
-294.243 67.1274 318.154 89.2552 26.6165 85.2 -158.945 55.5794 87.2559 -82.1634 42.4154 -3.94366 92.0207 30.9719 13.5077 128.534 -70.295 -42.0266 137.617 -26.859 5.92102 -2.73192 1.11501 65.3022 16.5048 41.8374 5.69494 5.09401 -2.56103 116.888 3.40678 3.65087 -89.2582 19.6199 7.06297 0.0225788 7.96828 7.0571 -0.28989 -14.7114 6.7281 2.15405 5.30126 6.7281 2.15405 121.369 -3.55353 -19.3833 144.212 -63.2983 107.905 -50.9369 20.0499 -66.5048 -12.9737 5.16804 -50.5708 -60.4983 -25.3859 132.69 -26.5996 56.0937 22.5284 43.4823 20.5432 -74.5002 29.5108 -24.5335 -78.7329 66.2077 -7.97606 13.4474 -123.119 -1.01573 -12.8613 
-295.433 66.9514 319.251 88.7981 26.6793 86.0882 -159.291 57.3398 87.7901 -83.4999 42.2062 -3.04749 92.8179 30.9584 12.801 103.019 -72.4195 -67.7112 137.877 -27.5242 11.0736 15.0861 -7.57305 64.1757 22.9327 35.304 -10.1785 42.9154 31.7018 108.398 3.38679 3.62595 -89.2865 19.6709 7.00791 -0.0282193 8.01894 6.99985 -0.338172 -14.659 6.69087 2.08891 5.35363 6.6909 2.08889 121.625 -3.87986 -19.1768 143.565 -61.8397 109.551 -54.5637 20.7412 -66.3755 -14.0575 5.91659 -52.6531 -60.4584 -25.1111 132.915 -22.3127 53.4554 16.6121 42.9751 28.2104 -73.1513 31.7253 -26.6087 -79.4656 66.8902 -8.03267 13.4838 -123.501 -0.605772 -13.2402 
-297.256 66.6512 320.89 88.0768 26.8139 87.4866 -160.076 60.1349 88.7619 -85.5823 41.9225 -1.78888 93.7855 30.9103 11.9196 76.3131 -70.1569 -94.1483 137.803 -29.4615 20.1938 39.1174 -25.7781 63.1424 18.4446 27.1231 -14.684 111.208 29.277 46.9446 3.34969 3.58918 -89.3283 19.7458 6.9119 -0.0999654 8.09329 6.90077 -0.405552 -14.5815 6.62092 1.99131 5.43113 6.62093 1.9913 122.049 -4.41891 -18.8407 142.314 -59.5795 111.866 -60.9997 21.5638 -65.6675 -15.9472 7.19822 -55.3558 -60.385 -24.6984 133.284 -16.2761 46.6041 7.5327 43.1048 43.1699 -72.5835 35.8972 -30.4209 -80.3815 67.9678 -8.14496 13.5293 -124.078 0.0358463 -13.843 
-299.658 66.2417 322.905 87.1336 27.053 89.3262 -161.55 63.8301 90.3035 -88.2085 40.1377 -0.37072 95.4259 30.6944 9.37832 61.4645 -65.8174 -108.378 140.559 -29.4313 35.0558 46.7938 -54.1224 59.6751 18.9093 24.8887 -6.37734 131.455 3.72013 25.7881 3.29102 3.54648 -89.3793 19.8321 6.76873 -0.181229 8.17882 6.75418 -0.480352 -14.491 6.50888 1.8703 5.52161 6.50887 1.87029 122.645 -5.1728 -18.3787 140.335 -56.7409 114.446 -71.0919 21.7911 -63.6192 -18.867 9.03481 -57.6167 -60.2681 -24.1933 133.795 -11.5018 28.4471 -2.96651 60.0724 70.4121 -89.8161 42.9062 -36.2686 -80.5336 69.393 -8.33433 13.5694 -124.797 0.873821 -14.6474 
-302.511 65.7712 325.191 86.0199 27.4134 91.5334 -164.368 68.1931 92.9967 -91.0313 39.1972 0.976163 96.1741 30.4652 7.95623 54.1882 -61.8618 -114.903 139.939 -33.3673 42.8625 60.7012 -69.9226 61.2077 16.5795 27.8858 7.74526 142.372 -4.18696 22.2336 3.20827 3.50569 -89.4356 19.9138 6.57543 -0.261879 8.25945 6.55751 -0.552288 -14.4035 6.34885 1.73463 5.60909 6.34886 1.73463 123.418 -6.14512 -17.7931 137.625 -53.633 116.931 -85.9598 19.8944 -59.4599 -23.137 11.2396 -57.8487 -60.0967 -23.6419 134.449 -17.0635 -22.0986 -14.6129 163.355 37.8204 177.831 51.9236 -42.7187 -78.9815 71.1208 -8.62268 13.5903 -125.604 1.87547 -15.6335 
-305.92 64.9437 327.852 84.796 27.8891 94.0181 -170.017 73.473 98.2615 -94.2128 38.0926 2.14588 96.3875 30.0415 6.50808 50.3605 -58.7859 -117.974 143.289 -34.2794 48.0564 68.6455 -74.3745 69.395 15.8645 26.3808 16.2311 152.456 1.04422 24.9757 3.10203 3.47603 -89.4929 19.972 6.3362 -0.332326 8.31644 6.31538 -0.611989 -14.338 6.14197 1.59475 5.6746 6.14195 1.59475 124.375 -7.33738 -17.0862 134.315 -50.6189 119.054 -105.964 13.3618 -53.5653 -28.5932 12.8457 -53.8974 -59.8602 -23.0891 135.245 -165.116 -53.1366 -150.672 -147.06 -49.1822 -169.531 46.6499 -45.8437 -89.9397 73.1044 -9.03013 13.5808 -126.447 3.012 -16.7831 
-311.203 61.898 332.029 83.5257 28.4552 96.6666 168.948 82.0993 118.467 -98.7421 37.0002 3.05475 94.2641 28.3059 5.25432 48.1426 -56.4403 -119.478 146.955 -35.5057 53.4671 71.0189 -77.5406 72.1224 16.6602 25.5564 22.506 158.761 19.6066 30.7223 2.97722 3.46692 -89.5456 19.9879 6.06323 -0.382281 8.331 6.04051 -0.649761 -14.3139 5.89677 1.46419 5.69878 5.89679 1.46419 125.519 -8.74494 -16.2617 130.62 -48.0372 120.64 -128.369 1.22987 -48.8988 -32.6445 11.9059 -45.1227 -59.5497 -22.577 136.178 152.561 10.3974 -155.724 -61.9332 -56.0001 -58.553 24.284 -40.8742 -119.181 75.2923 -9.57208 13.5322 -127.277 4.26066 -18.0797 
-317.294 57.9948 336.843 82.2631 29.0773 99.3599 71.2291 83.4337 -145.035 -102.296 36.0686 3.69583 90.0998 25.4778 3.97552 46.7464 -54.6124 -120.211 151.414 -36.1615 59.2167 65.2689 -79.6241 68.4479 18.3695 24.4695 26.0821 140.616 56.529 53.2022 2.84006 3.48522 -89.587 19.9478 5.77383 -0.401216 8.28954 5.75056 -0.655793 -14.3453 5.6266 1.35829 5.66733 5.62659 1.35829 126.848 -10.3522 -15.3264 126.755 -46.0978 121.605 -148.021 -11.7986 -47.9281 -31.9137 8.60875 -35.2636 -59.1614 -22.1388 137.233 118.373 23.609 -136.514 -86.2108 -55.2413 -36.8977 6.35343 -21.0764 -139.605 77.626 -10.2559 13.4407 -128.049 5.60708 -19.5084 
-323.485 54.1673 341.67 81.0448 29.7257 101.994 42.0407 74.4525 -117.308 -103.816 35.3936 4.12614 84.6034 22.1315 2.41239 45.8146 -53.149 -120.526 156.051 -36.6732 64.9919 53.0865 -80.7579 58.2536 20.1323 23.5707 28.3961 28.5117 35.8873 153.003 2.69848 3.53371 -89.6104 19.8462 5.48553 -0.3796 8.18668 5.46349 -0.621389 -14.4384 5.34523 1.29145 5.57424 5.34525 1.29145 128.348 -12.1296 -14.2906 122.887 -44.8516 121.945 -162.193 -20.9413 -49.1254 -28.0967 5.51166 -27.5084 -58.6987 -21.795 138.388 96.642 14.6719 -125.683 -109.698 -73.3923 -28.1115 -2.31637 -0.155469 -144.662 80.0398 -11.0796 13.3066 -128.72 7.04306 -21.0558 
-329.703 50.5204 346.441 79.8924 30.3785 104.485 34.3885 65.665 -111.228 -103.271 35.018 4.41866 78.1146 18.6213 0.43482 45.1678 -51.9492 -120.599 160.709 -36.9737 70.6315 37.5676 -80.8152 44.4346 21.7549 22.8834 29.9613 -5.17779 -22.4993 141.196 2.55861 3.6111 -89.6099 19.6859 5.21404 -0.309665 8.02533 5.19534 -0.539466 -14.5907 5.0654 1.27584 5.42191 5.0654 1.27584 129.995 -14.03 -13.1692 119.139 -44.2184 121.705 -171.425 -26.1667 -50.4745 -24.1923 3.47512 -21.7786 -58.1736 -21.5516 139.608 88.9695 0.224069 -122.386 -148.424 -82.2353 -46.3495 -6.23761 10.418 -144.006 82.4601 -12.0317 13.1338 -129.254 8.5605 -22.7069 
